<svg version="1.1" viewBox="0.0 0.0 100.0 100.0" fill="none" stroke="none" stroke-linecap="square" stroke-miterlimit="10" xmlns:xlink="http://www.w3.org/1999/xlink" xmlns="http://www.w3.org/2000/svg"><clipPath id="p.0"><path d="m0 0l100.0 0l0 100.0l-100.0 0l0 -100.0z" clip-rule="nonzero"/></clipPath><g clip-path="url(#p.0)"><path fill="#000000" fill-opacity="0.0" d="m0 0l100.0 0l0 100.0l-100.0 0z" fill-rule="evenodd"/><path fill="#990000" d="m92.547935 20.476381l-18.811028 75.244095l-47.44882 0l-18.811024 -75.244095z" fill-rule="evenodd"/><path fill="#edf2fa" d="m36.061745 31.172188l6.2047234 0.062992096l0 49.858265l-6.2047234 -0.06298828z" fill-rule="evenodd"/><path fill="#edf2fa" d="m46.922157 31.172188l6.2047234 0.062992096l0 49.858265l-6.2047234 -0.06298828z" fill-rule="evenodd"/><path fill="#edf2fa" d="m57.78257 31.172188l6.2047234 0.062992096l0 49.858265l-6.2047234 -0.06298828z" fill-rule="evenodd"/><path fill="#990000" d="m5.007874 19.329279l0 -3.9212599l0 0c0 -2.1656513 20.143661 -3.9212599 44.992126 -3.9212599c24.848465 0 44.992126 1.7556086 44.992126 3.9212599l0 3.9212599z" fill-rule="evenodd"/><path fill="#990000" d="m45.388798 11.332741c-1.0627899 -1.6978064 -0.5260544 -3.709567 1.2964821 -4.8593836c1.8225365 -1.1498165 4.4525185 -1.1359015 6.3526917 0.033611298c1.9001732 1.1695127 2.5718079 3.187667 1.6223221 4.8748274z" fill-rule="evenodd"/></g></svg>